<?xml version="1.0" encoding="UTF-8"?><svg id="a" xmlns="http://www.w3.org/2000/svg" viewBox="0 0 3200 2000"><defs><style>.b{fill:#91cecf;}.c{fill:#fff;}.d{fill:#d4e4f8;}.e{fill:#f99746;}.f{fill:#9fc1f4;}.g{fill:#e2915a;}.h{fill:#c0d8fb;}.i{fill:#af4138;}.j{fill:#2e3552;}.k{fill:#c8dbf4;}.l{fill:#c65447;}.m{fill:#17467f;}.n{fill:#d3e3f7;}.o{fill:#9abfe2;}.p{fill:#dfebfd;}.q{fill:#f2ccaa;}.r{fill:#f9ddbf;}.s{fill:#e8945b;}.t{fill:#bad4f4;}.u{fill:#b7d3f3;}.v{fill:#ed7d2b;}.w{fill:#0c2442;}.x{fill:#ffb27d;}.y{fill:#abddda;}.a`{fill:#233862;}.aa{fill:#163560;}.ab{fill:#f5f9fd;}.ac{fill:#ebf3fa;}.ad{fill:#e5effb;}</style></defs><rect class="c" width="3200" height="2000"/><g><path class="ac" d="M2812.04,1797.71l-479.2,3.31-611.14-2.29-1366.34-5.1s-196.01-163.31-191.25-447.89c3.04-181.83,43.55-565.67,468.1-655.4,398.18-84.15,292.32-619.48,879.42-566.87,231.66,20.76,334.45,226.77,513.49,171.89,756.62-231.92,922.71,250.36,979.66,718.54,21.01,172.74-35.73,710.22-192.73,783.82Z"/><g><rect class="h" x="1497.42" y="318.78" width="178.16" height="172.85" rx="12.74" ry="12.74"/><rect class="p" x="1505.14" y="326.27" width="162.73" height="157.87" rx="11.64" ry="11.64"/><g><g><path class="u" d="M1582.81,342.04c0-2.04,1.65-3.69,3.69-3.69s3.69,1.65,3.69,3.69-1.65,3.69-3.69,3.69-3.69-1.65-3.69-3.69Z"/><path class="u" d="M1612.59,347.26c.99-1.78,3.24-2.42,5.02-1.43,1.78,.99,2.42,3.24,1.43,5.02-.99,1.78-3.24,2.42-5.02,1.43-1.78-.99-2.42-3.24-1.43-5.02Z"/><path class="u" d="M1638.1,367.53c1.71-1.1,4-.61,5.1,1.1,1.11,1.71,.61,4-1.1,5.1s-4,.61-5.1-1.1c-1.11-1.71-.61-4,1.1-5.1Z"/><path class="u" d="M1650.74,398.9c2.04,0,3.69,1.65,3.69,3.69s-1.65,3.69-3.69,3.69-3.69-1.65-3.69-3.69,1.65-3.69,3.69-3.69Z"/><path class="u" d="M1644.29,435.31c1.44,1.44,1.44,3.78,0,5.22-1.44,1.44-3.78,1.44-5.22,0-1.44-1.44-1.44-3.78,0-5.22s3.78-1.44,5.22,0Z"/><circle class="u" cx="1618.5" cy="461.16" r="3.69"/><path class="u" d="M1582.81,470.52c0-2.04,1.65-3.69,3.69-3.69s3.69,1.65,3.69,3.69-1.65,3.69-3.69,3.69-3.69-1.65-3.69-3.69Z"/></g><g><path class="u" d="M1560.3,347.26c-.99-1.78-3.24-2.42-5.02-1.43-1.78,.99-2.42,3.24-1.43,5.02,.99,1.78,3.24,2.42,5.02,1.43,1.78-.99,2.42-3.24,1.43-5.02Z"/><path class="u" d="M1534.78,367.53c-1.71-1.1-4-.61-5.1,1.1s-.61,4,1.1,5.1c1.71,1.1,4,.61,5.1-1.1,1.1-1.71,.61-4-1.1-5.1Z"/><path class="u" d="M1522.15,398.9c-2.04,0-3.69,1.65-3.69,3.69s1.65,3.69,3.69,3.69,3.69-1.65,3.69-3.69-1.65-3.69-3.69-3.69Z"/><path class="u" d="M1528.6,435.31c-1.44,1.44-1.44,3.78,0,5.22,1.44,1.44,3.78,1.44,5.22,0,1.44-1.44,1.44-3.78,0-5.22s-3.78-1.44-5.22,0Z"/><path class="u" d="M1551.77,458.55c-1.44,1.44-1.44,3.78,0,5.22,1.44,1.44,3.78,1.44,5.22,0s1.44-3.78,0-5.22-3.78-1.44-5.22,0Z"/></g></g><g><path class="u" d="M1585.51,402.59c0-2.04,1.65-3.69,3.69-3.69s3.69,1.65,3.69,3.69-1.65,3.69-3.69,3.69-3.69-1.65-3.69-3.69Z"/><rect class="u" x="1588.69" y="356.49" width="1.01" height="46.1"/><rect class="u" x="1585.42" y="391.42" width="31.07" height="3.02" transform="translate(99.04 1072.42) rotate(-38.13)"/></g></g><g><g><path class="k" d="M759.9,1107.32s-31.18-36.37-1.92-59.48c0,0,21.37-12.94,38.79-11.89,0,0-24.69,41.4-16.7,45.52,7.99,4.12,24.19-48.12,24.19-48.12,0,0,48.63-4.72,64.27,2.81,0,0-41.57,34.02-32.82,36.04,8.76,2.02,53.66-31.37,53.66-31.37,0,0,45.26,7.7,42.85,35.31-2.41,27.61-18.01,36.13-24.86,35.4-6.85-.73-46.95-16.04-47.82-10.42-.87,5.62,23.26,23.97,40.16,24.83,0,0-31.91,35.19-53.11,25.03-21.21-10.16-23.02-26.25-36.24-32.29-13.22-6.04-24.5-6.02-19.05,.13,5.46,6.16,29.38,12.14,36.94,25.52,7.56,13.37,14.34,22.39-7.6,19.09-21.94-3.3-57.6-19.36-59.17-37.74l-1.57-18.38Z"/><g><path class="k" d="M909.98,1076.9s-122.93-4.74-150.07,30.42c0,0-6,17.98-24.48,34.35l-2.88,7.85s21.3-22.46,28.92-23.82c0,0-11.92-43.55,148.51-48.8Z"/><path class="k" d="M735.42,1141.68s-26.39,19.51-28.22,54.38l4.79,.43s8.43-36.05,23.66-50.15c15.23-14.1-.23-4.66-.23-4.66Z"/></g></g><g><path class="k" d="M650.9,1061.58s49.59-27.77,26.45-65.47c0,0-18.52-23.14-38.35-29.1,0,0,10.58,56.21,0,57.53-10.58,1.32-7.27-63.48-7.27-63.48,0,0-52.24-25.13-72.74-23.14,0,0,32.4,54.88,21.82,53.56-10.58-1.32-46.95-56.87-46.95-56.87,0,0-53.56-9.92-62.16,21.82-8.6,31.74,5.29,47.61,13.23,49.6,7.94,1.98,58.85,1.32,57.53,7.93-1.32,6.61-35.71,17.19-54.88,11.24,0,0,21.16,52.24,48.93,49.6,27.77-2.65,36.37-19.84,53.56-21.16,17.19-1.32,29.76,3.31,21.16,7.94-8.6,4.63-37.69,1.52-51.58,13.32-13.89,11.81-25.13,19.08,.66,24.37,25.79,5.29,72.08,1.98,81.34-17.85l9.26-19.84Z"/><g><path class="k" d="M496.16,966.36s138.87,44.97,154.74,95.22c0,0-.66,22.48,13.23,48.27v9.92s-14.55-33.72-22.48-38.35c0,0,31.08-43.64-145.48-115.06Z"/><path class="k" d="M664.12,1109.85s21.42,32.52,9.21,72.11l-5.51-1.48s5.35-43.6-5.86-65.53c-11.2-21.93,2.16-5.09,2.16-5.09Z"/></g></g><g><path class="d" d="M729.8,1023.28s-65.37-36.61-34.87-86.3c0,0,24.41-30.51,50.56-38.35,0,0-13.95,74.09,0,75.84,13.95,1.74,9.59-83.68,9.59-83.68,0,0,68.86-33.12,95.88-30.51,0,0-42.71,72.35-28.77,70.6,13.95-1.74,61.89-74.96,61.89-74.96,0,0,70.6-13.08,81.94,28.76,11.33,41.84-6.97,62.76-17.43,65.38-10.46,2.61-77.58,1.74-75.84,10.46,1.74,8.72,47.07,22.66,72.35,14.82,0,0-27.89,68.86-64.5,65.38-36.61-3.49-47.94-26.15-70.61-27.89-22.66-1.74-39.23,4.36-27.89,10.46,11.33,6.1,49.68,2,67.99,17.56,18.31,15.56,33.12,25.15-.87,32.12-34,6.97-95.01,2.62-107.22-23.54l-12.2-26.15Z"/><g><path class="d" d="M933.77,897.76s-183.05,59.27-203.97,125.52c0,0,.87,29.64-17.43,63.63v13.07s19.18-44.45,29.64-50.56c0,0-40.97-57.53,191.77-151.67Z"/><path class="d" d="M712.37,1086.91s-28.23,42.87-12.14,95.05l7.26-1.95s-7.05-57.48,7.72-86.38c14.77-28.91-2.85-6.72-2.85-6.72Z"/></g></g><path class="d" d="M727.6,1295.12c70.73,0,128.06-57.33,128.06-128.06h-256.12c0,70.73,57.33,128.06,128.06,128.06Z"/><path class="d" d="M857.42,1301.63h-259.66c0-8.73,7.07-15.8,15.8-15.8h228.06c8.73,0,15.8,7.07,15.8,15.8h0Z"/><rect class="f" x="595.33" y="1167.06" width="263.24" height="3.93"/></g><g><path class="o" d="M884.21,1309.45v12.29c0,4.3-1.39,7.82-3.09,7.82H432.65c-1.7,0-3.09-3.51-3.09-7.82v-12.29c0-4.29,1.39-7.82,3.09-7.82h448.47c1.7,0,3.09,3.52,3.09,7.82Z"/><path class="t" d="M884.21,1309.45v12.29c0,4.3-1.28,7.82-2.84,7.82h-356.04c-1.56,0-2.84-3.51-2.84-7.82v-12.29c0-4.29,1.28-7.82,2.84-7.82h356.04c1.56,0,2.84,3.52,2.84,7.82Z"/><rect class="k" x="452.32" y="1329.56" width="318.39" height="464.06"/><rect class="p" x="541.54" y="1329.56" width="318.39" height="464.06"/><g><path class="u" d="M842.83,1768h-284.17v-425.33h284.17v425.33Zm-281.1-3.07h278.03v-419.2h-278.03v419.2Z"/><rect class="u" x="560.19" y="1483.37" width="281.1" height="3.07"/><rect class="u" x="560.19" y="1626.82" width="281.1" height="3.07"/><path class="u" d="M729.54,1370.1h-52.16c-2.53,0-4.6-2.07-4.6-4.6h0c0-2.53,2.07-4.6,4.6-4.6h52.16c2.53,0,4.6,2.07,4.6,4.6h0c0,2.53-2.07,4.6-4.6,4.6Z"/><path class="u" d="M729.54,1510.37h-52.16c-2.53,0-4.6-2.07-4.6-4.6h0c0-2.53,2.07-4.6,4.6-4.6h52.16c2.53,0,4.6,2.07,4.6,4.6h0c0,2.53-2.07,4.6-4.6,4.6Z"/><path class="u" d="M729.54,1656.6h-52.16c-2.53,0-4.6-2.07-4.6-4.6h0c0-2.53,2.07-4.6,4.6-4.6h52.16c2.53,0,4.6,2.07,4.6,4.6h0c0,2.53-2.07,4.6-4.6,4.6Z"/></g></g><g><path class="k" d="M522.84,1237.99v64.48h-65.01v-64.68c0-.63,.03-1.24,.1-1.85,.68-7.41,5.44-13.62,12-16.41,4.68-1.98,7.96-6.26,8.22-11.33l.48-9.31h23.87l.15,9.29c.1,5.06,3.3,9.41,7.96,11.37,6.59,2.78,11.37,9,12.12,16.39,.07,.68,.11,1.36,.11,2.06Z"/><polygon class="u" points="504.19 1202.97 476.35 1202.97 477.09 1195.7 503.46 1195.7 504.19 1202.97"/><path class="c" d="M522.84,1237.99v41.58h-65.01v-41.79c0-.63,.03-1.24,.1-1.85h64.81c.07,.68,.11,1.36,.11,2.06Z"/></g><g><path class="k" d="M576.24,1266.41v36.07h-36.36v-36.18c0-.35,.02-.69,.05-1.04,.38-4.14,3.04-7.62,6.71-9.18,2.62-1.11,4.46-3.5,4.6-6.34l.27-5.21h13.35l.08,5.2c.05,2.83,1.85,5.26,4.46,6.36,3.68,1.56,6.36,5.04,6.78,9.17,.04,.38,.06,.76,.06,1.15Z"/><polygon class="u" points="565.82 1246.82 550.24 1246.82 550.65 1242.75 565.4 1242.75 565.82 1246.82"/><path class="c" d="M576.24,1266.41v23.26h-36.36v-23.37c0-.35,.02-.69,.05-1.04h36.25c.04,.38,.06,.76,.06,1.15Z"/></g><g><rect class="n" x="1887.36" y="436.24" width="744.79" height="1361.48"/><rect class="ad" x="1920.06" y="460.15" width="680.31" height="1337.56"/><path class="n" d="M2484.97,1119.79c0-16.61,13.46-30.07,30.07-30.07s30.07,13.46,30.07,30.07-13.46,30.07-30.07,30.07-30.07-13.46-30.07-30.07Z"/><g><rect class="ab" x="2120.79" y="662.85" width="280.83" height="88.65"/><rect class="n" x="2172.91" y="690.34" width="176.59" height="9.12"/><rect class="n" x="2197.63" y="714.9" width="127.16" height="9.12"/></g></g><path class="t" d="M2404.99,754.87h-287.57v-95.39h287.57v95.39Zm-280.83-6.74h274.09v-81.91h-274.09v81.91Z"/><g><path class="aa" d="M1938.37,568.81c-23.31-12.09-41.99-4.49-41.99-4.49-71.33-8.38-92.14,74.81-91.17,103.43,.95,28.62,4.23,59.37-27.62,96.55-92.01,107.41,100.7,112.15,100.7,112.15,1.63-85.82,104.5-54.5,99.99-45.81,131.88,31.65,13.11-234.33-39.9-261.83Z"/><path class="x" d="M1663.22,926.59s-12.54-19.1-22.65-19.47c-10.11-.37-28.83-5.62-27.33-1.87,1.5,3.74,13.11,4.12,14.23,6.37,1.12,2.25-17.22,5.62-22.47,5.99-5.24,.37-17.6,0-17.22,2.62,.37,2.62,22.27,13.48,37.72,11.98,15.45-1.5,34.55,4.49,34.55,4.49l3.18-10.11Z"/><path class="r" d="M1844.63,932.77s-6.82,13.5-19.19,29.01c-14.91,18.67-37.89,40.24-66.75,44.49-13.78,2.03-27.26-.93-39.65-6.44-.03-.01-.04-.01-.04-.01-35.05-15.56-61.4-51.34-61.4-51.34-6.18-16.85,3.93-28.27,3.93-28.27,0,0,70.77,15.92,77.51,12.55,6.74-3.37,46.06-116.63,55.41-130.87,9.37-14.23,41.27-21.62,41.27-21.62l8.91,152.49Z"/><path class="q" d="M1825.45,961.78c-14.91,18.67-37.89,40.24-66.75,44.49-13.78,2.03-27.26-.93-39.65-6.44,1.37,.18,36.37,4.5,50.32-20.46,14.23-25.47,29.62-65.9,50.76-52.42,9.12,5.82,8.72,20.28,5.31,34.82Z"/><path class="a`" d="M2108.66,1696.67s21.59,19.71,17.38,33.71c-4.21,14-23.7,23.34-26.33,40.45-2.63,17.11-13.17,26.45-22.65,26.45h-45.2s-6.98-12.04,9.88-15.67c16.85-3.63,23.21-23.74,22.16-42.41-1.05-18.67,1.58-43.56,1.58-43.56l35.82-8.3,7.37,9.33Z"/><path class="a`" d="M1925.88,1705.04s7.77,83.49-1.71,88.15l-121.33-.25s0-14,19.49-17.11c19.49-3.11,53.72-14.52,59.52-39.93,5.79-25.41,44.04-30.86,44.04-30.86Z"/><path class="x" d="M2012.34,1106.1c-24.97-55.99-40.24-72.06-37.33-89.44,2.17-12.93-6.61-241.16-6.61-241.16-2.96-.92-8.9-1.74-12.15-2.46-10.24-2.27-18.72-9.47-22.24-19.35-4.25-11.9-7.63-29.47-7.55-51.49l-3.2,.63-53.77,10.65s1.22,16.92,1.26,32.87c0,.13,0,.27,0,.4,.07,13.85-9.02,26.07-22.32,29.91-6.79,1.96-12.7,3.64-12.7,3.64,0,0-19.75,56.38-23.52,114.29-3.77,57.91,35.91,83.07-.3,198.81-36.96,118.2,214.22,43.66,200.43,12.72Z"/><path class="s" d="M1869.49,713.47s1.22,16.92,1.26,32.87c30.09-.85,46-28.3,52.52-43.51l-53.78,10.65Z"/><path class="x" d="M1859.44,728.57s71.2,1.17,71.25-43.17c.05-44.35,9.27-74.07-36.18-76.69-45.45-2.62-54.31,14.29-57.92,29.09-3.62,14.8,4.34,89.33,22.86,90.78Z"/><path class="aa" d="M1862.08,607.62s19.49,52.03,49.41,59.72c29.92,7.69,42.89-.32,42.89-.32,0,0-22.95-18.23-27.71-50.05,0,0-49.89-34.11-64.59-9.35Z"/><path class="aa" d="M1866.91,611.84s-14.46,5.4-20.41,15.95c-5.82,10.31-10.77,23.96-9.62,40.71,0,0-14.69-35.36,1.82-55.37,17.5-21.21,28.21-1.29,28.21-1.29Z"/><path class="c" d="M1874.93,701.06s-4.91,6.46-14.74,6c-7.92-.38-10.97-7.24-10.97-7.24,0,0,14.54-3.5,25.71,1.24Z"/><path class="r" d="M2002.65,876.45s-.27,33.77-2.08,64.35c-1.2,20.28-3.07,39.16-5.98,45.88-7.3,16.85-15.54,19.59-15.54,19.59l-63.7,15.61-22.4,5.48-70.63-21.1s-32.17-89.8-19.25-140.35c12.92-50.55,32.66-85.65,32.66-85.65,0,0,57.64,56.43,132.68-4.79l34.24,100.96Z"/><path class="q" d="M2000.57,940.81c-1.2,20.28-3.07,39.16-5.98,45.88-7.3,16.85-15.54,19.59-15.54,19.59l-63.7,15.61-27.67-8.13s92.36-14,82.12-93.46l30.76,20.51Z"/><path class="v" d="M1826.82,1019.9s-34.98,108.88-37.23,145.95c-2.25,37.07,66.86,526.6,69.65,543.68,2.62,16.1,22.61,26.36,22.61,26.36,0,0,9.2,5.42,22.32,1.72,18.21-5.14,23.96-11.3,23.96-11.3,0,0,27.23-349.13,10.38-473.85-16.85-124.72-17.05-232.57-17.05-232.57h-94.65Z"/><path class="e" d="M1975.02,1016.66s53.36,71.59,58.33,119.99c4.97,48.4,7.8,218.39,18.4,265.57,10.6,47.18,49.53,137.97,49.53,285.12,0,0-4.05,8.43-16.54,12.93-4,1.44-9.35,2.83-14.55,4.02-10.31,2.36-20.88-2.67-25.58-12.14-26.32-53-110.18-223.94-114.47-259.43-3.04-25.11-29.52-191.31-87.27-288.83-13.87-23.41,8.51-116.52,8.51-116.52l123.64-10.71Z"/><path class="a`" d="M1821.23,1003.1s14.04,11.11,41.94,11.67c33.32,.67,115.89-8.49,115.89-8.49,0,0,3.67,10.25,3.52,21.07,0,0-100.84,25.44-159.27,3.71,0,0-7.54-14.18-2.08-27.96Z"/><path class="c" d="M1855.17,1043.48c-8.38,0-15.21-7.72-15.21-17.21s6.82-17.21,15.21-17.21,15.2,7.72,15.2,17.21-6.82,17.21-15.2,17.21Zm0-29.38c-5.61,0-10.17,5.46-10.17,12.17s4.56,12.17,10.17,12.17,10.16-5.46,10.16-12.17-4.56-12.17-10.16-12.17Z"/><rect class="aa" x="1937.85" y="1115.86" width="162.34" height="90.99" transform="translate(-199.42 451.64) rotate(-12.17)"/><path class="m" d="M1930.09,1133.99s44.36,37.17,93.67,24.24c49.31-12.93,65.02-58.45,65.02-58.45l-158.69,34.22Z"/><path class="m" d="M1952.29,1136.99c-4.86,0-8.82-3.96-8.82-8.82s3.95-8.81,8.82-8.81,8.81,3.96,8.81,8.81-3.95,8.82-8.81,8.82Zm0-14.7c-3.25,0-5.89,2.64-5.89,5.89s2.64,5.89,5.89,5.89,5.89-2.64,5.89-5.89-2.64-5.89-5.89-5.89Z"/><path class="x" d="M2081.46,1139.34s.06,12.89,2.51,19.11c2.44,6.22,9.78,14.51,12.22,14.51s-2.24-12.95-1.02-12.69c1.22,.26,7.12,21.56,11.4,22.08,4.28,.52,8.16-23.89,5.92-33.48-2.24-9.59-11.92-21.08-11.92-21.08l-19.12,11.56Z"/><path class="r" d="M1968.41,775.5s39.38,5.34,60.58,47.11c16.38,32.28,27.62,133.8,39.18,165.77,11.06,30.59,26.33,89.73,34.84,137.11,.66,3.67-1.37,7.3-4.84,8.68l-14.48,5.74c-3.12,1.24-6.68,.03-8.4-2.86-12.87-21.61-63.61-108.15-81.24-158.22-20.6-58.53-59.14-94.88-59.14-94.88l33.5-108.45Z"/><path class="w" d="M1949.38,1121.34c-.09-1.45-9.25-146.22-7.5-227.62,.92-42.74,7.52-72.85,12.9-90.58,5.87-19.35,14.63-27.27,14.86-27.65l2.99,.89c-.22,.36-24.53,36.92-26.26,117.44-1.75,81.21,7.4,225.79,7.49,227.24l-4.48,.29Z"/></g><g><path class="a`" d="M1193.54,1792.76h74.83c-.56-3.92-2.47-15.86-5.97-26.86-1.21-3.83-2.63-7.55-4.24-10.78-7.28-14.53-53.5-5.29-53.5-5.29,0,0-4.29,3.68-7.65,17.73-1.49,6.19-2.79,14.4-3.47,25.2Z"/><path class="b" d="M1330.9,649.82s59.62,10.47,73.1,45.66c13.48,35.19,89.64,603.67,89.64,603.67,0,0-37.71,29.88-118.66,19.15-80.95-10.73-44.08-668.49-44.08-668.49Z"/><path class="a`" d="M1419.65,1769.15c.2,10.18,1.49,19.81,5.18,23.62h148c-1.88-5.36-7.21-13.41-22.4-15.88-17.27-2.79-44.18-11.11-59.89-27.72-5.6-5.9-9.77-12.86-11.6-21-6.96-31-57.57,9.5-57.57,9.5,0,0-2.04,16.33-1.72,31.48Z"/><path class="i" d="M1483.39,1754.07c-16.54,5.27-48.15,21.38-68.23,13.8-12.98-4.89-85.52-214.73-90.22-306.52-.35-6.67-1.66-15.98-3.71-27.34-4.3-23.69-11.81-56.24-20.47-92.16-23.22-96.24-54.61-216.64-53.93-255.12,1.05-59.73,178-12.52,178-12.52,0,0,12.17,48.99,14.6,119.93,4.8,140.8,18.01,378.64,53.95,543.81,1.52,7.01-3.11,13.93-9.97,16.11Z"/><path class="l" d="M1360.58,1086.96l-93.54,677.95s-41.08,9.91-73.03,1.98c0,0-27.39-360.56-25.1-447.73,2.28-87.17-19.65-233.25,5.01-249.36,24.66-16.11,186.66,17.16,186.66,17.16Z"/><path class="c" d="M1162.1,680.87s98.3-63.56,168.81-31.06c11.24,5.18,24.05,19.63,33.23,29.75,25.49,28.08,75.29,474.19,75.29,474.19,0,0-141.37,47.88-277.32-16.25v-456.63Z"/><path class="y" d="M1336.5,648.21s99.52,40.78,113,72.12c13.48,31.34,57.29,223.77,57.29,246.34s-76.28,5.04-88.56-31.35c-10.2-30.22-44.59-123.07-62.73-181.79l-19-105.32Z"/><g><path class="x" d="M1315.83,679.28c-21.72,4.26-53.64-.28-77-15.68,10.55-25.2,14.87-45.09,16.41-57.96,.09-.69,.16-1.35,.22-1.99,.7-6.67,.6-11.2,.27-13.28h56.17s15.36,7.02,15.36,11.87c0,2.59,.02,5.08,.07,7.45,.11,6.46,.37,12.1,.71,16.94,1.07,15.76,2.88,23.19,2.88,23.19,0,0,6.86,25.16-15.07,29.46Z"/><path class="g" d="M1328.03,626.63c-42.55,8.22-67.25-15.03-72.79-20.99-.79-.85-1.19-1.36-1.19-1.36,.45-.22,.92-.43,1.42-.63,15.84-6.41,51.78-1.31,71.86,6.04,.11,6.46,.37,12.1,.71,16.94Z"/><path class="x" d="M1241.34,581.14c7.6,40.92,60.41,39.58,83.23,37.01,6.42-.71,10.46-1.53,10.46-1.53,7.24-1.93,11.28-13.34,13.16-28.28,3.73-29.57-.98-72.97-5.97-84.07-7.52-16.7-21.68-34.77-74.85-21.73-53.19,13.04-35.78,46.17-26.02,98.61Z"/><path class="a`" d="M1344.19,481.44c-7.27-10.06-22.68-22.36-36.68-29.93-30.07-16.27-68.55,.51-68.71,.58-43.43,19.1-54.78,52.33-31.75,104.09,24.35,54.74,47.54,48.58,47.54,48.58,0,0-4.92-3.06-4.48-20.12,.02-.97,.06-1.78,.11-2.48,.22-3.5-1.01-7-3.62-9.33-5.4-4.82-8.02-19.38-3.51-23.43,5.45-4.89,13.11,1.05,15.56,5.62,2.14,3.23,5.97,4.36,9.53,2.1,13.52-8.55,4.74-25.64,17.65-36.1,12.92-10.46,39.13-1.68,58.51-10.01,25.37-9.45,5.32-21.99-.15-29.58Z"/></g><path class="y" d="M1350.24,1340.92c-8.56,2.2-17.03,4.01-25.45,5.4-7.45,1.27-14.86,2.21-22.29,2.84-42.07,3.66-84.33-2.26-133.72-16.42-11.12-3.19-22.61-6.81-34.54-10.82-1.27-.43,3.25-131.03,8.46-265.75,.53-13.91,1.08-27.87,1.62-41.73,.24-5.88,.46-11.72,.7-17.55,4.73-119.15,9.41-226.75,10.4-232.55,2.26-13.11,4.37-24.29,6.67-33.97,6.73-28.23,15.09-43.71,33.31-57.02,1.77-1.35,16.34-8.69,29.19-15.09,10.65-5.29,20.11-9.91,20.11-9.91h.01c4.23,2.08,9.32,11.78,14.65,25.41,9.78,25.12,20.34,63.58,27.69,92.3,.02,.08,.03,.12,.03,.15h0c4.73,18.56,8.12,33,9.09,37.15,1.64,7,3.81,20.55,6.36,38.91,3.46,24.99,7.59,58.92,11.96,97.41,.45,3.95,.9,7.96,1.35,12.01,.52,4.62,1.05,9.29,1.56,14.01,.17,1.52,.34,3.03,.49,4.55,1.69,15.24,3.38,30.98,5.07,46.98,1.4,13.22,21.46,22.78,22.84,36.23,.8,7.9,2.46,80.75,4.61,104,1.54,16.6,.44,175.64-.16,183.45Z"/><path class="b" d="M1205.16,812.38c-.06,.27-3.41,120.49,87.02,135.09,90.43,14.6,30.34,18.46,30.34,18.46,0,0-170.14-7.23-172.95-11.72-2.81-4.49,55.58-141.83,55.58-141.83Z"/><path class="b" d="M1281.57,999.08s-1.7,1.2-4.95,3.3c-.06,.02-.11,.07-.17,.1-13.79,8.81-54.74,32.81-114.35,48.91-6.26,1.7-12.73,3.3-19.39,4.79,.53-13.91,1.08-27.87,1.62-41.73-7.87-.62-15.41-1.62-22.41-3.1,.24-1.83,.48-3.66,.72-5.49,7.58-3.11,15.12-6.11,22.39-8.95,5.92-2.31,11.65-4.52,17.07-6.56,24.49-9.3,42.64-15.6,42.64-15.6l72.49,22.96,4.35,1.38Z"/><path class="y" d="M1300.75,997.07s-9.31,2.33-24.14,5.31c-.06,0-.1,.01-.16,.03-27.34,5.49-73.31,13.2-114.36,12.78-6.05-.07-12.01-.3-17.77-.75-7.87-.62-15.41-1.62-22.41-3.1-15.01-3.17-27.58-8.53-35.8-16.91-61.07-62.21,33.33-285.48,53.18-307.2,23.17-25.36,65.47-34.26,88.82-37.32,.98-.12,1.91-.25,2.82-.36,8.21-.98,13.48-1.18,13.77-1.19h.01s-1.83,5.89-4.9,15.87c-1.19,3.86-2.57,8.35-4.09,13.34-14.34,46.98-42.02,139.3-54.22,191.37-4.47,19.05-6.86,32.71-5.77,36.79,4.76,17.78,54.11,26.93,85.37,30.97,13.04,1.68,22.94,2.48,25.15,2.65,.16,0,.3,.01,.46,.03l1.81,7.41,4.32,17.78,4.26,17.47,3.65,15.01Z"/><polygon class="a`" points="1471.09 1104.09 1261.34 1095.25 1303.89 833.85 1513.65 842.69 1471.09 1104.09"/><path class="x" d="M1286.71,939.4s40.83-2.85,42.88,6.67c4.77,22.19-35.1,40.4-48.02,39.16-12.92-1.25-4.25-47.31,5.14-45.83Z"/><path class="x" d="M1502.18,895.77s-39.06-12.22-43.26-3.43c-9.78,20.48,24.81,47.43,37.66,49.2,12.86,1.78,15.08-45.04,5.6-45.77Z"/><path class="b" d="M1248.95,635.24s-17.18,8.19-25.79,20.54c0,0,64.21,111.48,63.92,110.44-.29-1.04-21.7-116.7-38.13-130.98Z"/><path class="b" d="M1328.92,636.81c5.66,2.13,16.5,13.25,18.95,19.39l7.63,97.32s-16.3-71.42-24.59-103.71c-2.11-8.21-1.72-10.7-1.99-13Z"/><path class="l" d="M1373.43,836.78s1.66-7.25,11.21-6.41c9.55,.84,63.19,3.48,63.19,3.48,0,0,10.35-.17,9.38,6.46l-83.78-3.53Z"/><path class="c" d="M1311.9,590.37s6.96,6.35,18.2,4.38c6.66-1.17,10.39-9.83,10.39-9.83,0,0-12.8-2.3-28.59,5.45Z"/></g><rect class="j" x="196.13" y="1792.76" width="2790.1" height="9.04" rx="3.49" ry="3.49"/></g></svg>